<mxfile host="Electron" agent="Mozilla/5.0 (Windows NT 10.0; Win64; x64) AppleWebKit/537.36 (KHTML, like Gecko) draw.io/25.0.2 Chrome/128.0.6613.186 Electron/32.2.5 Safari/537.36" version="25.0.2">
  <diagram id="Ohcm7--c6hvS0u91lAnx" name="Page-1">
    <mxGraphModel dx="1195" dy="703" grid="1" gridSize="10" guides="1" tooltips="1" connect="1" arrows="1" fold="1" page="1" pageScale="1" pageWidth="850" pageHeight="1100" math="0" shadow="0">
      <root>
        <mxCell id="0" />
        <mxCell id="1" parent="0" />
        <mxCell id="fSIX_j-od76aGPSxKUjf-3" value="" style="edgeStyle=orthogonalEdgeStyle;rounded=0;orthogonalLoop=1;jettySize=auto;html=1;" edge="1" parent="1" source="fSIX_j-od76aGPSxKUjf-1" target="fSIX_j-od76aGPSxKUjf-2">
          <mxGeometry relative="1" as="geometry" />
        </mxCell>
        <mxCell id="fSIX_j-od76aGPSxKUjf-1" value="FUNCTION" style="rounded=0;whiteSpace=wrap;html=1;" vertex="1" parent="1">
          <mxGeometry x="425" y="90" width="120" height="60" as="geometry" />
        </mxCell>
        <mxCell id="fSIX_j-od76aGPSxKUjf-6" value="" style="edgeStyle=orthogonalEdgeStyle;rounded=0;orthogonalLoop=1;jettySize=auto;html=1;" edge="1" parent="1" source="fSIX_j-od76aGPSxKUjf-2" target="fSIX_j-od76aGPSxKUjf-5">
          <mxGeometry relative="1" as="geometry" />
        </mxCell>
        <mxCell id="fSIX_j-od76aGPSxKUjf-2" value="BLOCK 0" style="whiteSpace=wrap;html=1;rounded=0;" vertex="1" parent="1">
          <mxGeometry x="425" y="170" width="120" height="60" as="geometry" />
        </mxCell>
        <mxCell id="fSIX_j-od76aGPSxKUjf-4" value="&lt;pre style=&quot;line-height: 10%;&quot;&gt;int foo()&lt;/pre&gt;&lt;pre style=&quot;line-height: 10%;&quot;&gt;{&lt;/pre&gt;&lt;pre style=&quot;line-height: 10%;&quot;&gt;&lt;span style=&quot;white-space: pre;&quot;&gt;&#x9;&lt;/span&gt;int x = 1; /* BLOCK 0 */&lt;br&gt;&lt;/pre&gt;&lt;pre style=&quot;line-height: 10%;&quot;&gt;&lt;span style=&quot;white-space: pre;&quot;&gt;&#x9;&lt;/span&gt;if(x)&lt;br&gt;&lt;/pre&gt;&lt;pre style=&quot;line-height: 10%;&quot;&gt;&lt;span style=&quot;white-space: pre;&quot;&gt;&#x9;&lt;/span&gt;{&lt;/pre&gt;&lt;pre style=&quot;line-height: 10%;&quot;&gt;&lt;span style=&quot;white-space: pre;&quot;&gt;&#x9;&lt;/span&gt;&lt;span style=&quot;white-space: pre;&quot;&gt;&#x9;&lt;/span&gt;/* BLOCK 1 */&lt;br&gt;&lt;/pre&gt;&lt;pre style=&quot;line-height: 10%;&quot;&gt;&lt;span style=&quot;white-space: pre;&quot;&gt;&#x9;&lt;/span&gt;}&lt;br&gt;&lt;/pre&gt;&lt;pre style=&quot;line-height: 10%;&quot;&gt;&lt;span style=&quot;white-space: pre;&quot;&gt;&#x9;&lt;/span&gt;else&lt;br&gt;&lt;/pre&gt;&lt;pre style=&quot;line-height: 10%;&quot;&gt;&lt;span style=&quot;white-space: pre;&quot;&gt;&#x9;&lt;/span&gt;{&lt;/pre&gt;&lt;pre style=&quot;line-height: 10%;&quot;&gt;&lt;span style=&quot;white-space: pre;&quot;&gt;&#x9;&lt;/span&gt;&lt;span style=&quot;white-space: pre;&quot;&gt;&#x9;&lt;/span&gt;/* BLOCK 2 */&lt;br&gt;&lt;/pre&gt;&lt;pre style=&quot;line-height: 10%;&quot;&gt;&lt;span style=&quot;white-space: pre;&quot;&gt;&#x9;&lt;/span&gt;}&lt;br&gt;&lt;/pre&gt;&lt;pre style=&quot;line-height: 10%;&quot;&gt;&lt;span style=&quot;white-space: pre;&quot;&gt;&#x9;&lt;/span&gt;ret x; /* BLOCK 3 */&lt;br&gt;&lt;/pre&gt;&lt;pre style=&quot;line-height: 10%;&quot;&gt;}&lt;/pre&gt;" style="rounded=0;whiteSpace=wrap;html=1;align=left;" vertex="1" parent="1">
          <mxGeometry x="90" y="90" width="290" height="170" as="geometry" />
        </mxCell>
        <mxCell id="fSIX_j-od76aGPSxKUjf-8" value="" style="edgeStyle=orthogonalEdgeStyle;rounded=0;orthogonalLoop=1;jettySize=auto;html=1;" edge="1" parent="1" source="fSIX_j-od76aGPSxKUjf-5" target="fSIX_j-od76aGPSxKUjf-7">
          <mxGeometry relative="1" as="geometry" />
        </mxCell>
        <mxCell id="fSIX_j-od76aGPSxKUjf-5" value="BLOCK 1" style="whiteSpace=wrap;html=1;rounded=0;" vertex="1" parent="1">
          <mxGeometry x="425" y="250" width="120" height="60" as="geometry" />
        </mxCell>
        <mxCell id="fSIX_j-od76aGPSxKUjf-10" value="" style="edgeStyle=orthogonalEdgeStyle;rounded=0;orthogonalLoop=1;jettySize=auto;html=1;" edge="1" parent="1" source="fSIX_j-od76aGPSxKUjf-7" target="fSIX_j-od76aGPSxKUjf-9">
          <mxGeometry relative="1" as="geometry" />
        </mxCell>
        <mxCell id="fSIX_j-od76aGPSxKUjf-7" value="BLOCK 2" style="whiteSpace=wrap;html=1;rounded=0;" vertex="1" parent="1">
          <mxGeometry x="425" y="330" width="120" height="60" as="geometry" />
        </mxCell>
        <mxCell id="fSIX_j-od76aGPSxKUjf-9" value="BLOCK 3" style="whiteSpace=wrap;html=1;rounded=0;" vertex="1" parent="1">
          <mxGeometry x="425" y="410" width="120" height="60" as="geometry" />
        </mxCell>
      </root>
    </mxGraphModel>
  </diagram>
</mxfile>
